The 2010 Melbourne International Comedy Festival Gala.

This has been CLEANSED of all advertising including the Oxspam. Originally aired over 2 hours and 20 minutes, it has been cut down to 1 hour, 34 minutes of actual comedic content.

Enjoy.

General
Complete name                    : 2010 Melbourne Comedy Festival Gala.mkv
Format                           : Matroska
File size                        : 703 MiB
Duration                         : 1h 34mn
Overall bit rate                 : 1 036 Kbps
Writing application              : HandBrake 0.9.4

Video
ID                               : 1
Format                           : Theora
Codec ID                         : V_THEORA
Duration                         : 1h 34mn
Bit rate                         : 935 Kbps
Nominal bit rate                 : 946 Kbps
Width                            : 720 pixels
Height                           : 400 pixels
Display aspect ratio             : 16:9
Frame rate                       : 25.000 fps
Bits/(Pixel*Frame)               : 0.130
Stream size                      : 635 MiB (90%)
Writing library                  : Xiph.Org libtheora 1.1 20090822 (Thusnelda)

Audio
ID                               : 2
Format                           : Vorbis
Format settings, Floor           : 1
Codec ID                         : A_VORBIS
Duration                         : 1h 34mn
Bit rate mode                    : Constant
Bit rate                         : 80.0 Kbps
Channel(s)                       : 2 channels
Sampling rate                    : 48.0 KHz
Resolution                       : 16 bits
Stream size                      : 54.3 MiB (8%)
Writing library                  : aoTuV Beta 5 (UTC 2006-10-24)
Language                         : Unknown
